<mxfile host="app.diagrams.net" modified="2022-10-29T15:17:15.987Z" agent="5.0 (Windows NT 10.0; Win64; x64) AppleWebKit/537.36 (KHTML, like Gecko) Chrome/106.0.0.0 Safari/537.36" etag="jkhgUFF7jseFXivJf5Ro" version="20.4.2" type="github" pages="2">
  <diagram id="8Gu_poa3Zlre1GYAaCj_" name="第 1 页">
    <mxGraphModel dx="1038" dy="623" grid="1" gridSize="10" guides="1" tooltips="1" connect="1" arrows="1" fold="1" page="1" pageScale="1" pageWidth="827" pageHeight="1169" math="0" shadow="0">
      <root>
        <mxCell id="0" />
        <mxCell id="1" parent="0" />
        <mxCell id="9on0xV_XJY5VWQnlldJ7-14" value="功能模块列表" style="swimlane;fontStyle=0;childLayout=stackLayout;horizontal=1;startSize=26;horizontalStack=0;resizeParent=1;resizeParentMax=0;resizeLast=0;collapsible=1;marginBottom=0;align=center;fontSize=14;" vertex="1" parent="1">
          <mxGeometry x="60" y="446" width="180" height="270" as="geometry">
            <mxRectangle x="230" y="70" width="120" height="30" as="alternateBounds" />
          </mxGeometry>
        </mxCell>
        <mxCell id="9on0xV_XJY5VWQnlldJ7-15" value="DDL数据定义模块 " style="text;strokeColor=none;fillColor=none;spacingLeft=4;spacingRight=4;overflow=hidden;rotatable=0;points=[[0,0.5],[1,0.5]];portConstraint=eastwest;fontSize=14;" vertex="1" parent="9on0xV_XJY5VWQnlldJ7-14">
          <mxGeometry y="26" width="180" height="30" as="geometry" />
        </mxCell>
        <mxCell id="9on0xV_XJY5VWQnlldJ7-16" value="DML数据操作模块" style="text;strokeColor=none;fillColor=none;spacingLeft=4;spacingRight=4;overflow=hidden;rotatable=0;points=[[0,0.5],[1,0.5]];portConstraint=eastwest;fontSize=14;" vertex="1" parent="9on0xV_XJY5VWQnlldJ7-14">
          <mxGeometry y="56" width="180" height="30" as="geometry" />
        </mxCell>
        <mxCell id="9on0xV_XJY5VWQnlldJ7-18" value="启动和终止模块 &#xa;&#xa;" style="text;strokeColor=none;fillColor=none;spacingLeft=4;spacingRight=4;overflow=hidden;rotatable=0;points=[[0,0.5],[1,0.5]];portConstraint=eastwest;fontSize=14;" vertex="1" parent="9on0xV_XJY5VWQnlldJ7-14">
          <mxGeometry y="86" width="180" height="30" as="geometry" />
        </mxCell>
        <mxCell id="9on0xV_XJY5VWQnlldJ7-23" value="数据组织和缓冲区模块" style="text;strokeColor=none;fillColor=none;spacingLeft=4;spacingRight=4;overflow=hidden;rotatable=0;points=[[0,0.5],[1,0.5]];portConstraint=eastwest;fontSize=14;" vertex="1" parent="9on0xV_XJY5VWQnlldJ7-14">
          <mxGeometry y="116" width="180" height="30" as="geometry" />
        </mxCell>
        <mxCell id="9on0xV_XJY5VWQnlldJ7-19" value="完整性检验模块" style="text;strokeColor=none;fillColor=none;spacingLeft=4;spacingRight=4;overflow=hidden;rotatable=0;points=[[0,0.5],[1,0.5]];portConstraint=eastwest;fontSize=14;" vertex="1" parent="9on0xV_XJY5VWQnlldJ7-14">
          <mxGeometry y="146" width="180" height="30" as="geometry" />
        </mxCell>
        <mxCell id="9on0xV_XJY5VWQnlldJ7-21" value="日志模块" style="text;strokeColor=none;fillColor=none;spacingLeft=4;spacingRight=4;overflow=hidden;rotatable=0;points=[[0,0.5],[1,0.5]];portConstraint=eastwest;fontSize=14;" vertex="1" parent="9on0xV_XJY5VWQnlldJ7-14">
          <mxGeometry y="176" width="180" height="30" as="geometry" />
        </mxCell>
        <mxCell id="9on0xV_XJY5VWQnlldJ7-22" value="事务模块" style="text;strokeColor=none;fillColor=none;spacingLeft=4;spacingRight=4;overflow=hidden;rotatable=0;points=[[0,0.5],[1,0.5]];portConstraint=eastwest;fontSize=14;" vertex="1" parent="9on0xV_XJY5VWQnlldJ7-14">
          <mxGeometry y="206" width="180" height="30" as="geometry" />
        </mxCell>
        <mxCell id="9on0xV_XJY5VWQnlldJ7-17" value="恢复模块" style="text;strokeColor=none;fillColor=none;spacingLeft=4;spacingRight=4;overflow=hidden;rotatable=0;points=[[0,0.5],[1,0.5]];portConstraint=eastwest;fontSize=14;" vertex="1" parent="9on0xV_XJY5VWQnlldJ7-14">
          <mxGeometry y="236" width="180" height="34" as="geometry" />
        </mxCell>
        <mxCell id="9on0xV_XJY5VWQnlldJ7-24" value="DDL数据定义模块" style="swimlane;fontStyle=0;childLayout=stackLayout;horizontal=1;startSize=26;fillColor=none;horizontalStack=0;resizeParent=1;resizeParentMax=0;resizeLast=0;collapsible=1;marginBottom=0;fontSize=14;" vertex="1" parent="1">
          <mxGeometry x="420" y="60" width="200" height="78" as="geometry" />
        </mxCell>
        <mxCell id="9on0xV_XJY5VWQnlldJ7-25" value="创建、修改、删除数据库" style="text;strokeColor=none;fillColor=none;align=left;verticalAlign=top;spacingLeft=4;spacingRight=4;overflow=hidden;rotatable=0;points=[[0,0.5],[1,0.5]];portConstraint=eastwest;fontSize=14;" vertex="1" parent="9on0xV_XJY5VWQnlldJ7-24">
          <mxGeometry y="26" width="200" height="26" as="geometry" />
        </mxCell>
        <mxCell id="9on0xV_XJY5VWQnlldJ7-26" value="创建、修改、删除数据表" style="text;strokeColor=none;fillColor=none;align=left;verticalAlign=top;spacingLeft=4;spacingRight=4;overflow=hidden;rotatable=0;points=[[0,0.5],[1,0.5]];portConstraint=eastwest;fontSize=14;" vertex="1" parent="9on0xV_XJY5VWQnlldJ7-24">
          <mxGeometry y="52" width="200" height="26" as="geometry" />
        </mxCell>
        <mxCell id="9on0xV_XJY5VWQnlldJ7-28" value="DML数据操作模块" style="swimlane;fontStyle=0;childLayout=stackLayout;horizontal=1;startSize=26;horizontalStack=0;resizeParent=1;resizeParentMax=0;resizeLast=0;collapsible=1;marginBottom=0;align=center;fontSize=14;" vertex="1" parent="1">
          <mxGeometry x="420" y="176" width="200" height="146" as="geometry" />
        </mxCell>
        <mxCell id="9on0xV_XJY5VWQnlldJ7-29" value="添加数据insert    &#xa;&#xa;" style="text;strokeColor=none;fillColor=none;spacingLeft=4;spacingRight=4;overflow=hidden;rotatable=0;points=[[0,0.5],[1,0.5]];portConstraint=eastwest;fontSize=14;" vertex="1" parent="9on0xV_XJY5VWQnlldJ7-28">
          <mxGeometry y="26" width="200" height="30" as="geometry" />
        </mxCell>
        <mxCell id="9on0xV_XJY5VWQnlldJ7-30" value="删除数据delete" style="text;strokeColor=none;fillColor=none;spacingLeft=4;spacingRight=4;overflow=hidden;rotatable=0;points=[[0,0.5],[1,0.5]];portConstraint=eastwest;fontSize=14;" vertex="1" parent="9on0xV_XJY5VWQnlldJ7-28">
          <mxGeometry y="56" width="200" height="30" as="geometry" />
        </mxCell>
        <mxCell id="9on0xV_XJY5VWQnlldJ7-31" value="修改数据update" style="text;strokeColor=none;fillColor=none;spacingLeft=4;spacingRight=4;overflow=hidden;rotatable=0;points=[[0,0.5],[1,0.5]];portConstraint=eastwest;fontSize=14;" vertex="1" parent="9on0xV_XJY5VWQnlldJ7-28">
          <mxGeometry y="86" width="200" height="30" as="geometry" />
        </mxCell>
        <mxCell id="9on0xV_XJY5VWQnlldJ7-32" value="查询数据select" style="text;strokeColor=none;fillColor=none;spacingLeft=4;spacingRight=4;overflow=hidden;rotatable=0;points=[[0,0.5],[1,0.5]];portConstraint=eastwest;fontSize=14;" vertex="1" parent="9on0xV_XJY5VWQnlldJ7-28">
          <mxGeometry y="116" width="200" height="30" as="geometry" />
        </mxCell>
        <mxCell id="9on0xV_XJY5VWQnlldJ7-33" value="启动终止模块" style="swimlane;fontStyle=0;childLayout=stackLayout;horizontal=1;startSize=26;horizontalStack=0;resizeParent=1;resizeParentMax=0;resizeLast=0;collapsible=1;marginBottom=0;align=center;fontSize=14;" vertex="1" parent="1">
          <mxGeometry x="420" y="340" width="200" height="86" as="geometry" />
        </mxCell>
        <mxCell id="9on0xV_XJY5VWQnlldJ7-34" value="启动数据库start    " style="text;strokeColor=none;fillColor=none;spacingLeft=4;spacingRight=4;overflow=hidden;rotatable=0;points=[[0,0.5],[1,0.5]];portConstraint=eastwest;fontSize=14;" vertex="1" parent="9on0xV_XJY5VWQnlldJ7-33">
          <mxGeometry y="26" width="200" height="30" as="geometry" />
        </mxCell>
        <mxCell id="9on0xV_XJY5VWQnlldJ7-35" value="终止数据库end" style="text;strokeColor=none;fillColor=none;spacingLeft=4;spacingRight=4;overflow=hidden;rotatable=0;points=[[0,0.5],[1,0.5]];portConstraint=eastwest;fontSize=14;" vertex="1" parent="9on0xV_XJY5VWQnlldJ7-33">
          <mxGeometry y="56" width="200" height="30" as="geometry" />
        </mxCell>
        <mxCell id="9on0xV_XJY5VWQnlldJ7-71" style="edgeStyle=orthogonalEdgeStyle;rounded=0;orthogonalLoop=1;jettySize=auto;html=1;entryX=1.016;entryY=0.133;entryDx=0;entryDy=0;entryPerimeter=0;fontSize=14;" edge="1" parent="1" source="9on0xV_XJY5VWQnlldJ7-37" target="9on0xV_XJY5VWQnlldJ7-19">
          <mxGeometry relative="1" as="geometry">
            <Array as="points">
              <mxPoint x="330" y="510" />
              <mxPoint x="330" y="596" />
            </Array>
          </mxGeometry>
        </mxCell>
        <mxCell id="9on0xV_XJY5VWQnlldJ7-37" value="数据组织和缓冲区模块" style="swimlane;fontStyle=0;childLayout=stackLayout;horizontal=1;startSize=26;horizontalStack=0;resizeParent=1;resizeParentMax=0;resizeLast=0;collapsible=1;marginBottom=0;align=center;fontSize=14;" vertex="1" parent="1">
          <mxGeometry x="420" y="450" width="200" height="120" as="geometry" />
        </mxCell>
        <mxCell id="9on0xV_XJY5VWQnlldJ7-38" value="数据的物理存储" style="text;strokeColor=none;fillColor=none;spacingLeft=4;spacingRight=4;overflow=hidden;rotatable=0;points=[[0,0.5],[1,0.5]];portConstraint=eastwest;fontSize=14;" vertex="1" parent="9on0xV_XJY5VWQnlldJ7-37">
          <mxGeometry y="26" width="200" height="30" as="geometry" />
        </mxCell>
        <mxCell id="9on0xV_XJY5VWQnlldJ7-39" value="数据在缓冲区组织创建索引&#xa;" style="text;strokeColor=none;fillColor=none;spacingLeft=4;spacingRight=4;overflow=hidden;rotatable=0;points=[[0,0.5],[1,0.5]];portConstraint=eastwest;fontSize=14;" vertex="1" parent="9on0xV_XJY5VWQnlldJ7-37">
          <mxGeometry y="56" width="200" height="30" as="geometry" />
        </mxCell>
        <mxCell id="9on0xV_XJY5VWQnlldJ7-41" value="响应SQL语句，返回响应的结果" style="text;strokeColor=none;fillColor=none;spacingLeft=4;spacingRight=4;overflow=hidden;rotatable=0;points=[[0,0.5],[1,0.5]];portConstraint=eastwest;fontSize=14;" vertex="1" parent="9on0xV_XJY5VWQnlldJ7-37">
          <mxGeometry y="86" width="200" height="34" as="geometry" />
        </mxCell>
        <mxCell id="9on0xV_XJY5VWQnlldJ7-72" style="edgeStyle=orthogonalEdgeStyle;rounded=0;orthogonalLoop=1;jettySize=auto;html=1;entryX=1.011;entryY=0.107;entryDx=0;entryDy=0;entryPerimeter=0;fontSize=14;" edge="1" parent="1" source="9on0xV_XJY5VWQnlldJ7-42" target="9on0xV_XJY5VWQnlldJ7-19">
          <mxGeometry relative="1" as="geometry" />
        </mxCell>
        <mxCell id="9on0xV_XJY5VWQnlldJ7-42" value="完整性检验" style="swimlane;fontStyle=0;childLayout=stackLayout;horizontal=1;startSize=26;horizontalStack=0;resizeParent=1;resizeParentMax=0;resizeLast=0;collapsible=1;marginBottom=0;align=center;fontSize=14;" vertex="1" parent="1">
          <mxGeometry x="420" y="600" width="200" height="116" as="geometry" />
        </mxCell>
        <mxCell id="9on0xV_XJY5VWQnlldJ7-43" value="实体完整性" style="text;strokeColor=none;fillColor=none;spacingLeft=4;spacingRight=4;overflow=hidden;rotatable=0;points=[[0,0.5],[1,0.5]];portConstraint=eastwest;fontSize=14;" vertex="1" parent="9on0xV_XJY5VWQnlldJ7-42">
          <mxGeometry y="26" width="200" height="30" as="geometry" />
        </mxCell>
        <mxCell id="9on0xV_XJY5VWQnlldJ7-44" value="域完整性" style="text;strokeColor=none;fillColor=none;spacingLeft=4;spacingRight=4;overflow=hidden;rotatable=0;points=[[0,0.5],[1,0.5]];portConstraint=eastwest;fontSize=14;" vertex="1" parent="9on0xV_XJY5VWQnlldJ7-42">
          <mxGeometry y="56" width="200" height="30" as="geometry" />
        </mxCell>
        <mxCell id="9on0xV_XJY5VWQnlldJ7-46" value="参照完整性&#xa;" style="text;strokeColor=none;fillColor=none;spacingLeft=4;spacingRight=4;overflow=hidden;rotatable=0;points=[[0,0.5],[1,0.5]];portConstraint=eastwest;fontSize=14;" vertex="1" parent="9on0xV_XJY5VWQnlldJ7-42">
          <mxGeometry y="86" width="200" height="30" as="geometry" />
        </mxCell>
        <mxCell id="9on0xV_XJY5VWQnlldJ7-73" style="edgeStyle=orthogonalEdgeStyle;rounded=0;orthogonalLoop=1;jettySize=auto;html=1;entryX=1.011;entryY=0.053;entryDx=0;entryDy=0;entryPerimeter=0;fontSize=14;" edge="1" parent="1" source="9on0xV_XJY5VWQnlldJ7-47" target="9on0xV_XJY5VWQnlldJ7-19">
          <mxGeometry relative="1" as="geometry">
            <Array as="points">
              <mxPoint x="330" y="828" />
              <mxPoint x="330" y="594" />
            </Array>
          </mxGeometry>
        </mxCell>
        <mxCell id="9on0xV_XJY5VWQnlldJ7-47" value="日志模块" style="swimlane;fontStyle=0;childLayout=stackLayout;horizontal=1;startSize=26;horizontalStack=0;resizeParent=1;resizeParentMax=0;resizeLast=0;collapsible=1;marginBottom=0;align=center;fontSize=14;" vertex="1" parent="1">
          <mxGeometry x="420" y="740" width="200" height="176" as="geometry" />
        </mxCell>
        <mxCell id="9on0xV_XJY5VWQnlldJ7-48" value="记录执行过的SQL语句" style="text;strokeColor=none;fillColor=none;spacingLeft=4;spacingRight=4;overflow=hidden;rotatable=0;points=[[0,0.5],[1,0.5]];portConstraint=eastwest;fontSize=14;" vertex="1" parent="9on0xV_XJY5VWQnlldJ7-47">
          <mxGeometry y="26" width="200" height="30" as="geometry" />
        </mxCell>
        <mxCell id="9on0xV_XJY5VWQnlldJ7-49" value="记录错误的操作" style="text;strokeColor=none;fillColor=none;spacingLeft=4;spacingRight=4;overflow=hidden;rotatable=0;points=[[0,0.5],[1,0.5]];portConstraint=eastwest;fontSize=14;" vertex="1" parent="9on0xV_XJY5VWQnlldJ7-47">
          <mxGeometry y="56" width="200" height="30" as="geometry" />
        </mxCell>
        <mxCell id="9on0xV_XJY5VWQnlldJ7-50" value="记录操作的时间" style="text;strokeColor=none;fillColor=none;spacingLeft=4;spacingRight=4;overflow=hidden;rotatable=0;points=[[0,0.5],[1,0.5]];portConstraint=eastwest;fontSize=14;" vertex="1" parent="9on0xV_XJY5VWQnlldJ7-47">
          <mxGeometry y="86" width="200" height="30" as="geometry" />
        </mxCell>
        <mxCell id="9on0xV_XJY5VWQnlldJ7-51" value="提供查询和导出日志的功能" style="text;strokeColor=none;fillColor=none;spacingLeft=4;spacingRight=4;overflow=hidden;rotatable=0;points=[[0,0.5],[1,0.5]];portConstraint=eastwest;fontSize=14;" vertex="1" parent="9on0xV_XJY5VWQnlldJ7-47">
          <mxGeometry y="116" width="200" height="30" as="geometry" />
        </mxCell>
        <mxCell id="9on0xV_XJY5VWQnlldJ7-53" value="提供删除指定时间段日志的功能" style="text;strokeColor=none;fillColor=none;spacingLeft=4;spacingRight=4;overflow=hidden;rotatable=0;points=[[0,0.5],[1,0.5]];portConstraint=eastwest;fontSize=14;" vertex="1" parent="9on0xV_XJY5VWQnlldJ7-47">
          <mxGeometry y="146" width="200" height="30" as="geometry" />
        </mxCell>
        <mxCell id="9on0xV_XJY5VWQnlldJ7-74" style="edgeStyle=orthogonalEdgeStyle;rounded=0;orthogonalLoop=1;jettySize=auto;html=1;entryX=1.011;entryY=0.133;entryDx=0;entryDy=0;entryPerimeter=0;fontSize=14;" edge="1" parent="1" source="9on0xV_XJY5VWQnlldJ7-55" target="9on0xV_XJY5VWQnlldJ7-19">
          <mxGeometry relative="1" as="geometry">
            <Array as="points">
              <mxPoint x="330" y="983" />
              <mxPoint x="330" y="596" />
            </Array>
          </mxGeometry>
        </mxCell>
        <mxCell id="9on0xV_XJY5VWQnlldJ7-55" value="事务模块" style="swimlane;fontStyle=0;childLayout=stackLayout;horizontal=1;startSize=26;horizontalStack=0;resizeParent=1;resizeParentMax=0;resizeLast=0;collapsible=1;marginBottom=0;align=center;fontSize=14;" vertex="1" parent="1">
          <mxGeometry x="420" y="940" width="200" height="86" as="geometry" />
        </mxCell>
        <mxCell id="9on0xV_XJY5VWQnlldJ7-56" value="提供针对表和元组的互斥操作" style="text;strokeColor=none;fillColor=none;spacingLeft=4;spacingRight=4;overflow=hidden;rotatable=0;points=[[0,0.5],[1,0.5]];portConstraint=eastwest;fontSize=14;" vertex="1" parent="9on0xV_XJY5VWQnlldJ7-55">
          <mxGeometry y="26" width="200" height="30" as="geometry" />
        </mxCell>
        <mxCell id="9on0xV_XJY5VWQnlldJ7-57" value="提供失败时回退的功能" style="text;strokeColor=none;fillColor=none;spacingLeft=4;spacingRight=4;overflow=hidden;rotatable=0;points=[[0,0.5],[1,0.5]];portConstraint=eastwest;fontSize=14;" vertex="1" parent="9on0xV_XJY5VWQnlldJ7-55">
          <mxGeometry y="56" width="200" height="30" as="geometry" />
        </mxCell>
        <mxCell id="9on0xV_XJY5VWQnlldJ7-59" value="恢复模块" style="swimlane;fontStyle=0;childLayout=stackLayout;horizontal=1;startSize=26;horizontalStack=0;resizeParent=1;resizeParentMax=0;resizeLast=0;collapsible=1;marginBottom=0;align=center;fontSize=14;" vertex="1" parent="1">
          <mxGeometry x="420" y="1050" width="200" height="86" as="geometry" />
        </mxCell>
        <mxCell id="9on0xV_XJY5VWQnlldJ7-60" value="撤销上一次操作并回退" style="text;strokeColor=none;fillColor=none;spacingLeft=4;spacingRight=4;overflow=hidden;rotatable=0;points=[[0,0.5],[1,0.5]];portConstraint=eastwest;fontSize=14;" vertex="1" parent="9on0xV_XJY5VWQnlldJ7-59">
          <mxGeometry y="26" width="200" height="30" as="geometry" />
        </mxCell>
        <mxCell id="9on0xV_XJY5VWQnlldJ7-61" value="撤销上一组操作并回退" style="text;strokeColor=none;fillColor=none;spacingLeft=4;spacingRight=4;overflow=hidden;rotatable=0;points=[[0,0.5],[1,0.5]];portConstraint=eastwest;fontSize=14;" vertex="1" parent="9on0xV_XJY5VWQnlldJ7-59">
          <mxGeometry y="56" width="200" height="30" as="geometry" />
        </mxCell>
        <mxCell id="9on0xV_XJY5VWQnlldJ7-66" style="edgeStyle=orthogonalEdgeStyle;rounded=0;orthogonalLoop=1;jettySize=auto;html=1;entryX=1.007;entryY=0.093;entryDx=0;entryDy=0;entryPerimeter=0;fontSize=14;" edge="1" parent="1" source="9on0xV_XJY5VWQnlldJ7-25" target="9on0xV_XJY5VWQnlldJ7-19">
          <mxGeometry relative="1" as="geometry" />
        </mxCell>
        <mxCell id="9on0xV_XJY5VWQnlldJ7-68" style="edgeStyle=orthogonalEdgeStyle;rounded=0;orthogonalLoop=1;jettySize=auto;html=1;entryX=1.024;entryY=0.147;entryDx=0;entryDy=0;entryPerimeter=0;fontSize=14;" edge="1" parent="1" source="9on0xV_XJY5VWQnlldJ7-30" target="9on0xV_XJY5VWQnlldJ7-19">
          <mxGeometry relative="1" as="geometry" />
        </mxCell>
        <mxCell id="9on0xV_XJY5VWQnlldJ7-69" style="edgeStyle=orthogonalEdgeStyle;rounded=0;orthogonalLoop=1;jettySize=auto;html=1;entryX=1.016;entryY=0.147;entryDx=0;entryDy=0;entryPerimeter=0;fontSize=14;" edge="1" parent="1" source="9on0xV_XJY5VWQnlldJ7-34" target="9on0xV_XJY5VWQnlldJ7-19">
          <mxGeometry relative="1" as="geometry" />
        </mxCell>
      </root>
    </mxGraphModel>
  </diagram>
  <diagram id="Qs0I94KH8PvJCWWqV1fu" name="第 2 页">
    <mxGraphModel dx="1038" dy="623" grid="1" gridSize="10" guides="1" tooltips="1" connect="1" arrows="1" fold="1" page="1" pageScale="1" pageWidth="827" pageHeight="1169" math="0" shadow="0">
      <root>
        <mxCell id="0" />
        <mxCell id="1" parent="0" />
        <mxCell id="k-TkMudA6rPUTQkjmEIp-1" value="" style="rounded=0;whiteSpace=wrap;html=1;fontSize=14;" vertex="1" parent="1">
          <mxGeometry x="40" y="85" width="724" height="480" as="geometry" />
        </mxCell>
        <mxCell id="k-TkMudA6rPUTQkjmEIp-2" value="" style="rounded=0;whiteSpace=wrap;html=1;fontSize=14;" vertex="1" parent="1">
          <mxGeometry x="60" y="170" width="160" height="370" as="geometry" />
        </mxCell>
        <mxCell id="k-TkMudA6rPUTQkjmEIp-3" value="" style="rounded=0;whiteSpace=wrap;html=1;fontSize=14;" vertex="1" parent="1">
          <mxGeometry x="230" y="170" width="510" height="140" as="geometry" />
        </mxCell>
        <mxCell id="k-TkMudA6rPUTQkjmEIp-4" value="" style="rounded=0;whiteSpace=wrap;html=1;fontSize=14;" vertex="1" parent="1">
          <mxGeometry x="230" y="330" width="510" height="210" as="geometry" />
        </mxCell>
        <mxCell id="k-TkMudA6rPUTQkjmEIp-5" value="&lt;table border=&quot;1&quot; width=&quot;100%&quot; height=&quot;100%&quot; cellpadding=&quot;4&quot; style=&quot;width:100%;height:100%;border-collapse:collapse;&quot;&gt;&lt;tr style=&quot;background-color:#A7C942;color:#ffffff;border:1px solid #98bf21;&quot;&gt;&lt;th align=&quot;left&quot;&gt;Title 1&lt;/th&gt;&lt;th align=&quot;left&quot;&gt;Title 2&lt;/th&gt;&lt;th align=&quot;left&quot;&gt;Title 3&lt;/th&gt;&lt;/tr&gt;&lt;tr style=&quot;border:1px solid #98bf21;&quot;&gt;&lt;td&gt;Value 1&lt;/td&gt;&lt;td&gt;Value 2&lt;/td&gt;&lt;td&gt;Value 3&lt;/td&gt;&lt;/tr&gt;&lt;tr style=&quot;background-color:#EAF2D3;border:1px solid #98bf21;&quot;&gt;&lt;td&gt;Value 4&lt;/td&gt;&lt;td&gt;Value 5&lt;/td&gt;&lt;td&gt;Value 6&lt;/td&gt;&lt;/tr&gt;&lt;tr style=&quot;border:1px solid #98bf21;&quot;&gt;&lt;td&gt;Value 7&lt;/td&gt;&lt;td&gt;Value 8&lt;/td&gt;&lt;td&gt;Value 9&lt;/td&gt;&lt;/tr&gt;&lt;tr style=&quot;background-color:#EAF2D3;border:1px solid #98bf21;&quot;&gt;&lt;td&gt;Value 10&lt;/td&gt;&lt;td&gt;Value 11&lt;/td&gt;&lt;td&gt;Value 12&lt;/td&gt;&lt;/tr&gt;&lt;/table&gt;" style="text;html=1;strokeColor=#c0c0c0;fillColor=#ffffff;overflow=fill;rounded=0;fontSize=14;" vertex="1" parent="1">
          <mxGeometry x="230" y="330" width="510" height="210" as="geometry" />
        </mxCell>
        <mxCell id="k-TkMudA6rPUTQkjmEIp-31" value="" style="line;strokeWidth=1;rotatable=0;dashed=0;labelPosition=right;align=left;verticalAlign=middle;spacingTop=0;spacingLeft=6;points=[];portConstraint=eastwest;shadow=0;fontSize=14;fillColor=#FFFFFF;" vertex="1" parent="1">
          <mxGeometry x="380" y="320" width="60" height="10" as="geometry" />
        </mxCell>
        <mxCell id="k-TkMudA6rPUTQkjmEIp-80" value="数据库和表" style="shape=table;startSize=30;container=1;collapsible=1;childLayout=tableLayout;fixedRows=1;rowLines=0;fontStyle=1;align=center;resizeLast=1;shadow=0;fontSize=14;fillColor=#FFFFFF;" vertex="1" parent="1">
          <mxGeometry x="60" y="170" width="160" height="150" as="geometry">
            <mxRectangle x="60" y="170" width="110" height="30" as="alternateBounds" />
          </mxGeometry>
        </mxCell>
        <mxCell id="k-TkMudA6rPUTQkjmEIp-81" value="" style="shape=tableRow;horizontal=0;startSize=0;swimlaneHead=0;swimlaneBody=0;fillColor=none;collapsible=0;dropTarget=0;points=[[0,0.5],[1,0.5]];portConstraint=eastwest;top=0;left=0;right=0;bottom=1;shadow=0;fontSize=14;" vertex="1" parent="k-TkMudA6rPUTQkjmEIp-80">
          <mxGeometry y="30" width="160" height="30" as="geometry" />
        </mxCell>
        <mxCell id="k-TkMudA6rPUTQkjmEIp-82" value="数据库" style="shape=partialRectangle;connectable=0;fillColor=none;top=0;left=0;bottom=0;right=0;fontStyle=1;overflow=hidden;shadow=0;fontSize=14;" vertex="1" parent="k-TkMudA6rPUTQkjmEIp-81">
          <mxGeometry width="80" height="30" as="geometry">
            <mxRectangle width="80" height="30" as="alternateBounds" />
          </mxGeometry>
        </mxCell>
        <mxCell id="k-TkMudA6rPUTQkjmEIp-83" value="数据表" style="shape=partialRectangle;connectable=0;fillColor=none;top=0;left=0;bottom=0;right=0;align=left;spacingLeft=6;fontStyle=5;overflow=hidden;shadow=0;fontSize=14;" vertex="1" parent="k-TkMudA6rPUTQkjmEIp-81">
          <mxGeometry x="80" width="80" height="30" as="geometry">
            <mxRectangle width="80" height="30" as="alternateBounds" />
          </mxGeometry>
        </mxCell>
        <mxCell id="k-TkMudA6rPUTQkjmEIp-84" value="" style="shape=tableRow;horizontal=0;startSize=0;swimlaneHead=0;swimlaneBody=0;fillColor=none;collapsible=0;dropTarget=0;points=[[0,0.5],[1,0.5]];portConstraint=eastwest;top=0;left=0;right=0;bottom=0;shadow=0;fontSize=14;" vertex="1" parent="k-TkMudA6rPUTQkjmEIp-80">
          <mxGeometry y="60" width="160" height="30" as="geometry" />
        </mxCell>
        <mxCell id="k-TkMudA6rPUTQkjmEIp-85" value="" style="shape=partialRectangle;connectable=0;fillColor=none;top=0;left=0;bottom=0;right=0;editable=1;overflow=hidden;shadow=0;fontSize=14;" vertex="1" parent="k-TkMudA6rPUTQkjmEIp-84">
          <mxGeometry width="80" height="30" as="geometry">
            <mxRectangle width="80" height="30" as="alternateBounds" />
          </mxGeometry>
        </mxCell>
        <mxCell id="k-TkMudA6rPUTQkjmEIp-86" value="表01" style="shape=partialRectangle;connectable=0;fillColor=none;top=0;left=0;bottom=0;right=0;align=left;spacingLeft=6;overflow=hidden;shadow=0;fontSize=14;" vertex="1" parent="k-TkMudA6rPUTQkjmEIp-84">
          <mxGeometry x="80" width="80" height="30" as="geometry">
            <mxRectangle width="80" height="30" as="alternateBounds" />
          </mxGeometry>
        </mxCell>
        <mxCell id="k-TkMudA6rPUTQkjmEIp-87" value="" style="shape=tableRow;horizontal=0;startSize=0;swimlaneHead=0;swimlaneBody=0;fillColor=none;collapsible=0;dropTarget=0;points=[[0,0.5],[1,0.5]];portConstraint=eastwest;top=0;left=0;right=0;bottom=0;shadow=0;fontSize=14;" vertex="1" parent="k-TkMudA6rPUTQkjmEIp-80">
          <mxGeometry y="90" width="160" height="30" as="geometry" />
        </mxCell>
        <mxCell id="k-TkMudA6rPUTQkjmEIp-88" value="database01" style="shape=partialRectangle;connectable=0;fillColor=none;top=0;left=0;bottom=0;right=0;editable=1;overflow=hidden;shadow=0;fontSize=14;" vertex="1" parent="k-TkMudA6rPUTQkjmEIp-87">
          <mxGeometry width="80" height="30" as="geometry">
            <mxRectangle width="80" height="30" as="alternateBounds" />
          </mxGeometry>
        </mxCell>
        <mxCell id="k-TkMudA6rPUTQkjmEIp-89" value="表02" style="shape=partialRectangle;connectable=0;fillColor=none;top=0;left=0;bottom=0;right=0;align=left;spacingLeft=6;overflow=hidden;shadow=0;fontSize=14;" vertex="1" parent="k-TkMudA6rPUTQkjmEIp-87">
          <mxGeometry x="80" width="80" height="30" as="geometry">
            <mxRectangle width="80" height="30" as="alternateBounds" />
          </mxGeometry>
        </mxCell>
        <mxCell id="k-TkMudA6rPUTQkjmEIp-90" value="" style="shape=tableRow;horizontal=0;startSize=0;swimlaneHead=0;swimlaneBody=0;fillColor=none;collapsible=0;dropTarget=0;points=[[0,0.5],[1,0.5]];portConstraint=eastwest;top=0;left=0;right=0;bottom=0;shadow=0;fontSize=14;" vertex="1" parent="k-TkMudA6rPUTQkjmEIp-80">
          <mxGeometry y="120" width="160" height="30" as="geometry" />
        </mxCell>
        <mxCell id="k-TkMudA6rPUTQkjmEIp-91" value="" style="shape=partialRectangle;connectable=0;fillColor=none;top=0;left=0;bottom=0;right=0;editable=1;overflow=hidden;shadow=0;fontSize=14;" vertex="1" parent="k-TkMudA6rPUTQkjmEIp-90">
          <mxGeometry width="80" height="30" as="geometry">
            <mxRectangle width="80" height="30" as="alternateBounds" />
          </mxGeometry>
        </mxCell>
        <mxCell id="k-TkMudA6rPUTQkjmEIp-92" value="表03" style="shape=partialRectangle;connectable=0;fillColor=none;top=0;left=0;bottom=0;right=0;align=left;spacingLeft=6;overflow=hidden;shadow=0;fontSize=14;" vertex="1" parent="k-TkMudA6rPUTQkjmEIp-90">
          <mxGeometry x="80" width="80" height="30" as="geometry">
            <mxRectangle width="80" height="30" as="alternateBounds" />
          </mxGeometry>
        </mxCell>
        <mxCell id="k-TkMudA6rPUTQkjmEIp-93" value="数据库和表" style="shape=table;startSize=30;container=1;collapsible=1;childLayout=tableLayout;fixedRows=1;rowLines=0;fontStyle=1;align=center;resizeLast=1;shadow=0;fontSize=14;fillColor=#FFFFFF;" vertex="1" parent="1">
          <mxGeometry x="60" y="320" width="160" height="150" as="geometry">
            <mxRectangle x="60" y="320" width="160" height="120" as="alternateBounds" />
          </mxGeometry>
        </mxCell>
        <mxCell id="k-TkMudA6rPUTQkjmEIp-94" value="" style="shape=tableRow;horizontal=0;startSize=0;swimlaneHead=0;swimlaneBody=0;fillColor=none;collapsible=0;dropTarget=0;points=[[0,0.5],[1,0.5]];portConstraint=eastwest;top=0;left=0;right=0;bottom=1;shadow=0;fontSize=14;" vertex="1" parent="k-TkMudA6rPUTQkjmEIp-93">
          <mxGeometry y="30" width="160" height="30" as="geometry" />
        </mxCell>
        <mxCell id="k-TkMudA6rPUTQkjmEIp-95" value="数据库" style="shape=partialRectangle;connectable=0;fillColor=none;top=0;left=0;bottom=0;right=0;fontStyle=1;overflow=hidden;shadow=0;fontSize=14;" vertex="1" parent="k-TkMudA6rPUTQkjmEIp-94">
          <mxGeometry width="80" height="30" as="geometry">
            <mxRectangle width="80" height="30" as="alternateBounds" />
          </mxGeometry>
        </mxCell>
        <mxCell id="k-TkMudA6rPUTQkjmEIp-96" value="数据表" style="shape=partialRectangle;connectable=0;fillColor=none;top=0;left=0;bottom=0;right=0;align=left;spacingLeft=6;fontStyle=5;overflow=hidden;shadow=0;fontSize=14;" vertex="1" parent="k-TkMudA6rPUTQkjmEIp-94">
          <mxGeometry x="80" width="80" height="30" as="geometry">
            <mxRectangle width="80" height="30" as="alternateBounds" />
          </mxGeometry>
        </mxCell>
        <mxCell id="k-TkMudA6rPUTQkjmEIp-97" value="" style="shape=tableRow;horizontal=0;startSize=0;swimlaneHead=0;swimlaneBody=0;fillColor=none;collapsible=0;dropTarget=0;points=[[0,0.5],[1,0.5]];portConstraint=eastwest;top=0;left=0;right=0;bottom=0;shadow=0;fontSize=14;" vertex="1" parent="k-TkMudA6rPUTQkjmEIp-93">
          <mxGeometry y="60" width="160" height="30" as="geometry" />
        </mxCell>
        <mxCell id="k-TkMudA6rPUTQkjmEIp-98" value="" style="shape=partialRectangle;connectable=0;fillColor=none;top=0;left=0;bottom=0;right=0;editable=1;overflow=hidden;shadow=0;fontSize=14;" vertex="1" parent="k-TkMudA6rPUTQkjmEIp-97">
          <mxGeometry width="80" height="30" as="geometry">
            <mxRectangle width="80" height="30" as="alternateBounds" />
          </mxGeometry>
        </mxCell>
        <mxCell id="k-TkMudA6rPUTQkjmEIp-99" value="表01" style="shape=partialRectangle;connectable=0;fillColor=none;top=0;left=0;bottom=0;right=0;align=left;spacingLeft=6;overflow=hidden;shadow=0;fontSize=14;" vertex="1" parent="k-TkMudA6rPUTQkjmEIp-97">
          <mxGeometry x="80" width="80" height="30" as="geometry">
            <mxRectangle width="80" height="30" as="alternateBounds" />
          </mxGeometry>
        </mxCell>
        <mxCell id="k-TkMudA6rPUTQkjmEIp-100" value="" style="shape=tableRow;horizontal=0;startSize=0;swimlaneHead=0;swimlaneBody=0;fillColor=none;collapsible=0;dropTarget=0;points=[[0,0.5],[1,0.5]];portConstraint=eastwest;top=0;left=0;right=0;bottom=0;shadow=0;fontSize=14;" vertex="1" parent="k-TkMudA6rPUTQkjmEIp-93">
          <mxGeometry y="90" width="160" height="30" as="geometry" />
        </mxCell>
        <mxCell id="k-TkMudA6rPUTQkjmEIp-101" value="database02" style="shape=partialRectangle;connectable=0;fillColor=none;top=0;left=0;bottom=0;right=0;editable=1;overflow=hidden;shadow=0;fontSize=14;" vertex="1" parent="k-TkMudA6rPUTQkjmEIp-100">
          <mxGeometry width="80" height="30" as="geometry">
            <mxRectangle width="80" height="30" as="alternateBounds" />
          </mxGeometry>
        </mxCell>
        <mxCell id="k-TkMudA6rPUTQkjmEIp-102" value="表02" style="shape=partialRectangle;connectable=0;fillColor=none;top=0;left=0;bottom=0;right=0;align=left;spacingLeft=6;overflow=hidden;shadow=0;fontSize=14;" vertex="1" parent="k-TkMudA6rPUTQkjmEIp-100">
          <mxGeometry x="80" width="80" height="30" as="geometry">
            <mxRectangle width="80" height="30" as="alternateBounds" />
          </mxGeometry>
        </mxCell>
        <mxCell id="k-TkMudA6rPUTQkjmEIp-103" value="" style="shape=tableRow;horizontal=0;startSize=0;swimlaneHead=0;swimlaneBody=0;fillColor=none;collapsible=0;dropTarget=0;points=[[0,0.5],[1,0.5]];portConstraint=eastwest;top=0;left=0;right=0;bottom=0;shadow=0;fontSize=14;" vertex="1" parent="k-TkMudA6rPUTQkjmEIp-93">
          <mxGeometry y="120" width="160" height="30" as="geometry" />
        </mxCell>
        <mxCell id="k-TkMudA6rPUTQkjmEIp-104" value="" style="shape=partialRectangle;connectable=0;fillColor=none;top=0;left=0;bottom=0;right=0;editable=1;overflow=hidden;shadow=0;fontSize=14;" vertex="1" parent="k-TkMudA6rPUTQkjmEIp-103">
          <mxGeometry width="80" height="30" as="geometry">
            <mxRectangle width="80" height="30" as="alternateBounds" />
          </mxGeometry>
        </mxCell>
        <mxCell id="k-TkMudA6rPUTQkjmEIp-105" value="表03" style="shape=partialRectangle;connectable=0;fillColor=none;top=0;left=0;bottom=0;right=0;align=left;spacingLeft=6;overflow=hidden;shadow=0;fontSize=14;" vertex="1" parent="k-TkMudA6rPUTQkjmEIp-103">
          <mxGeometry x="80" width="80" height="30" as="geometry">
            <mxRectangle width="80" height="30" as="alternateBounds" />
          </mxGeometry>
        </mxCell>
        <mxCell id="k-TkMudA6rPUTQkjmEIp-107" value="连接数据库" style="rounded=1;html=1;shadow=0;dashed=0;whiteSpace=wrap;fontSize=13;fillColor=#E6E6E6;align=center;strokeColor=#B3B3B3;fontColor=#333333;" vertex="1" parent="1">
          <mxGeometry x="60" y="110" width="90" height="16.88" as="geometry" />
        </mxCell>
        <mxCell id="k-TkMudA6rPUTQkjmEIp-108" value="关闭数据库" style="rounded=1;html=1;shadow=0;dashed=0;whiteSpace=wrap;fontSize=13;fillColor=#E6E6E6;align=center;strokeColor=#B3B3B3;fontColor=#333333;" vertex="1" parent="1">
          <mxGeometry x="60" y="133.12" width="90" height="16.88" as="geometry" />
        </mxCell>
        <mxCell id="k-TkMudA6rPUTQkjmEIp-109" value="打开SQL控制台" style="rounded=1;html=1;shadow=0;dashed=0;whiteSpace=wrap;fontSize=13;fillColor=#E6E6E6;align=center;strokeColor=#B3B3B3;fontColor=#333333;" vertex="1" parent="1">
          <mxGeometry x="170" y="110" width="100" height="40" as="geometry" />
        </mxCell>
        <mxCell id="k-TkMudA6rPUTQkjmEIp-110" value="打开日志控制台" style="rounded=1;html=1;shadow=0;dashed=0;whiteSpace=wrap;fontSize=13;fillColor=#E6E6E6;align=center;strokeColor=#B3B3B3;fontColor=#333333;" vertex="1" parent="1">
          <mxGeometry x="290" y="110" width="100" height="40" as="geometry" />
        </mxCell>
        <mxCell id="9Mc9LIkVQM9aJHDp7jcy-1" value="打开日志控制台" style="rounded=1;html=1;shadow=0;dashed=0;whiteSpace=wrap;fontSize=13;fillColor=#E6E6E6;align=center;strokeColor=#B3B3B3;fontColor=#333333;" vertex="1" parent="1">
          <mxGeometry x="410" y="110" width="100" height="40" as="geometry" />
        </mxCell>
        <mxCell id="9Mc9LIkVQM9aJHDp7jcy-2" value="打开事务控制台" style="rounded=1;html=1;shadow=0;dashed=0;whiteSpace=wrap;fontSize=13;fillColor=#E6E6E6;align=center;strokeColor=#B3B3B3;fontColor=#333333;" vertex="1" parent="1">
          <mxGeometry x="530" y="110" width="100" height="40" as="geometry" />
        </mxCell>
        <mxCell id="9Mc9LIkVQM9aJHDp7jcy-3" value="撤销和回退" style="rounded=1;html=1;shadow=0;dashed=0;whiteSpace=wrap;fontSize=13;fillColor=#E6E6E6;align=center;strokeColor=#B3B3B3;fontColor=#333333;" vertex="1" parent="1">
          <mxGeometry x="640" y="110" width="100" height="40" as="geometry" />
        </mxCell>
      </root>
    </mxGraphModel>
  </diagram>
</mxfile>
